<?xml version="1.0" standalone="no"?>
<!DOCTYPE svg PUBLIC "-//W3C//DTD SVG 20010904//EN"
 "http://www.w3.org/TR/2001/REC-SVG-20010904/DTD/svg10.dtd">
<svg version="1.0" xmlns="http://www.w3.org/2000/svg"
 width="200.000000pt" height="200.000000pt" viewBox="0 0 200.000000 200.000000"
 preserveAspectRatio="xMidYMid meet">

<g transform="translate(0.000000,200.000000) scale(0.100000,-0.100000)"
fill="#000000" stroke="none">
<path d="M1315 1493 c-11 -3 -47 -31 -80 -63 -55 -52 -65 -58 -115 -64 -41 -4
-61 -12 -83 -34 -28 -28 -28 -29 -10 -60 18 -31 18 -31 -10 -60 -15 -15 -25
-31 -22 -34 11 -11 -72 -67 -105 -70 -28 -4 -43 2 -72 26 -24 19 -38 40 -38
54 0 27 -51 82 -76 82 -14 0 -16 8 -12 51 l5 50 -39 -38 c-102 -98 -149 -256
-117 -392 48 -211 264 -359 470 -322 103 18 216 80 256 140 14 22 14 24 -1 18
-10 -4 -19 1 -25 12 -15 28 -62 44 -93 32 -39 -15 -101 47 -117 117 -13 50
-12 52 20 97 18 25 37 45 43 45 5 0 22 12 37 26 27 26 28 26 58 8 26 -15 32
-16 47 -3 23 19 44 71 44 110 0 26 12 45 59 94 63 65 75 90 69 146 -3 31 -6
34 -38 36 -19 0 -44 -1 -55 -4z m63 -11 c13 -9 -17 -41 -68 -75 -13 -10 -21
-17 -16 -17 5 0 1 -9 -10 -21 -15 -16 -16 -22 -5 -29 10 -6 2 -14 -30 -30
l-44 -23 20 23 c14 16 16 24 7 27 -6 3 -9 10 -6 15 4 7 2 8 -5 4 -8 -6 -9 -12
-2 -20 17 -20 -94 -139 -121 -130 -14 4 -29 -3 -49 -22 -25 -24 -29 -25 -35
-10 -4 11 2 27 19 44 l26 27 -20 32 -20 31 28 20 c15 10 50 22 77 25 42 4 55
12 106 62 50 49 76 64 130 74 3 0 11 -3 18 -7z m-291 -340 c-15 -16 -24 -32
-20 -36 15 -14 -90 -91 -109 -79 -25 14 34 123 66 123 7 0 23 11 36 25 21 23
26 24 39 10 13 -13 12 -18 -12 -43z m-377 -146 c0 -3 -4 -8 -10 -11 -5 -3 -10
-1 -10 4 0 6 5 11 10 11 6 0 10 -2 10 -4z m83 -83 c-7 -2 -21 -2 -30 0 -10 3
-4 5 12 5 17 0 24 -2 18 -5z"/>
<path d="M881 1408 c-1 -21 -7 -28 -28 -31 l-28 -4 28 -2 c22 -1 27 -6 28 -28
l1 -28 7 25 c5 17 16 27 36 31 l30 6 -30 4 c-21 3 -31 11 -36 29 l-7 25 -1
-27z"/>
<path d="M880 1180 c0 -5 5 -10 10 -10 6 0 10 5 10 10 0 6 -4 10 -10 10 -5 0
-10 -4 -10 -10z"/>
<path d="M1345 1120 c-3 -5 -1 -10 4 -10 6 0 11 5 11 10 0 6 -2 10 -4 10 -3 0
-8 -4 -11 -10z"/>
<path d="M1180 990 c0 -5 5 -10 11 -10 5 0 7 5 4 10 -3 6 -8 10 -11 10 -2 0
-4 -4 -4 -10z"/>
<path d="M323 475 c0 -42 2 -53 4 -27 4 41 5 42 39 42 33 0 34 -1 34 -40 0
-22 5 -40 11 -40 6 0 9 19 7 48 l-3 47 -42 3 c-29 2 -43 8 -46 20 -3 9 -4 -14
-4 -53z"/>
<path d="M1373 475 c0 -42 2 -53 4 -27 4 42 5 42 43 42 38 0 39 -1 43 -42 4
-39 4 -38 3 7 l-1 50 -42 3 c-29 2 -43 8 -46 20 -3 9 -4 -14 -4 -53z"/>
<path d="M183 470 c0 -36 2 -53 4 -37 6 36 44 37 67 2 9 -14 21 -25 27 -25 5
0 0 13 -12 29 l-22 29 22 28 c12 15 19 29 16 32 -2 3 -14 -7 -26 -21 -28 -37
-66 -36 -72 1 -2 15 -4 -2 -4 -38z"/>
<path d="M735 521 c28 -6 30 -10 36 -61 l6 -55 1 57 c2 56 2 57 35 61 17 2 1
4 -38 4 -44 0 -59 -2 -40 -6z"/>
<path d="M1255 521 c28 -6 30 -10 36 -61 l6 -55 1 57 c2 56 2 57 35 61 17 2 1
4 -38 4 -44 0 -59 -2 -40 -6z"/>
<path d="M434 497 c-3 -9 -4 -30 -2 -49 3 -32 5 -33 51 -36 l48 -3 -3 48 -3
48 -43 3 c-30 2 -44 -1 -48 -11z m86 -42 c0 -33 -2 -35 -35 -35 -33 0 -35 2
-35 35 0 33 2 35 35 35 33 0 35 -2 35 -35z"/>
<path d="M550 501 c0 -6 20 -11 46 -11 59 0 55 -24 -4 -28 -37 -3 -42 -6 -42
-28 0 -22 4 -24 51 -24 l50 0 -3 48 -3 47 -47 3 c-29 2 -48 -1 -48 -7z m90
-67 c0 -11 -9 -14 -37 -12 -52 4 -56 28 -4 28 30 0 41 -4 41 -16z"/>
<path d="M830 461 l0 -51 50 0 50 0 -2 53 -2 52 -3 -47 c-4 -47 -5 -48 -39
-48 -33 0 -34 1 -34 39 0 22 -4 43 -10 46 -6 4 -10 -13 -10 -44z"/>
<path d="M950 501 c0 -6 20 -11 45 -11 33 0 45 -4 45 -15 0 -11 -12 -15 -46
-15 -41 0 -45 -2 -42 -22 3 -20 10 -23 51 -26 l48 -3 -3 48 -3 48 -47 3 c-29
2 -48 -1 -48 -7z m90 -66 c0 -10 -11 -15 -35 -15 -24 0 -35 5 -35 15 0 10 11
15 35 15 24 0 35 -5 35 -15z"/>
<path d="M1072 458 c1 -50 2 -51 5 -10 4 42 5 42 43 42 38 0 39 -1 43 -42 4
-39 4 -38 3 7 l-1 50 -47 3 -48 3 2 -53z"/>
<path d="M1491 496 c-7 -8 -11 -30 -9 -48 3 -33 4 -33 53 -33 49 0 50 0 53 33
4 43 -12 62 -53 62 -18 0 -38 -6 -44 -14z m79 -41 c0 -33 -2 -35 -35 -35 -33
0 -35 2 -35 35 0 33 2 35 35 35 33 0 35 -2 35 -35z"/>
<path d="M1600 461 c0 -28 5 -51 10 -51 6 0 10 18 10 40 0 39 1 40 34 40 34 0
35 -2 39 -42 4 -39 4 -38 3 7 l-1 50 -47 3 -48 3 0 -50z"/>
<path d="M1727 504 c-4 -4 -7 -27 -7 -50 l0 -43 42 -3 c54 -4 62 -25 11 -31
l-38 -4 43 -1 43 -2 -3 68 -3 67 -40 3 c-23 2 -44 0 -48 -4z m83 -50 c0 -35
-1 -35 -37 -32 -35 3 -38 6 -41 36 -3 31 -2 32 37 32 40 0 41 -1 41 -36z"/>
<path d="M170 308 c0 -23 4 -28 23 -27 21 0 21 1 2 9 l-20 9 20 1 c15 1 16 3
5 7 -8 3 -18 11 -22 17 -4 6 -8 -1 -8 -16z"/>
<path d="M241 305 c0 -16 3 -25 7 -19 4 7 16 14 27 17 19 4 19 5 -2 6 -12 0
-24 7 -26 14 -3 6 -6 -1 -6 -18z"/>
<path d="M360 321 c0 -5 -9 -11 -20 -13 -19 -3 -18 -4 3 -14 20 -9 23 -7 25
13 1 13 0 23 -3 23 -3 0 -5 -4 -5 -9z"/>
<path d="M391 303 c2 -24 2 -25 6 -5 3 13 9 19 15 16 7 -4 8 -2 4 4 -13 21
-26 13 -25 -15z"/>
<path d="M441 312 c-1 -15 -5 -21 -13 -16 -10 5 -10 4 -1 -6 17 -18 26 -8 20
22 l-4 23 -2 -23z"/>
<path d="M742 305 c0 -16 2 -22 5 -12 2 9 2 23 0 30 -3 6 -5 -1 -5 -18z"/>
<path d="M970 305 c0 -22 3 -26 9 -16 8 13 12 13 28 1 15 -12 16 -12 6 0 -10
11 -10 17 0 29 11 14 10 14 -6 2 -16 -13 -20 -13 -28 0 -6 10 -9 6 -9 -16z"/>
<path d="M1040 308 c0 -24 4 -28 28 -27 l27 1 -25 8 c-21 7 -22 8 -5 10 15 1
16 3 5 7 -8 3 -18 11 -22 17 -4 6 -8 -1 -8 -16z"/>
<path d="M1294 305 c1 -14 9 -21 29 -23 24 -3 27 0 26 25 -2 23 -2 24 -6 6 -5
-27 -40 -31 -46 -5 -3 13 -4 12 -3 -3z"/>
<path d="M1404 318 c1 -7 13 -15 27 -17 l24 -4 -25 -8 -25 -7 28 -1 c18 -1 27
4 27 14 0 9 -9 15 -24 15 -13 0 -27 5 -29 10 -3 6 -4 5 -3 -2z"/>
<path d="M1481 308 c-1 -24 3 -28 27 -27 22 1 23 2 5 6 -13 2 -24 13 -26 26
-4 18 -5 17 -6 -5z"/>
<path d="M1631 308 c-1 -24 3 -28 27 -27 22 1 23 2 5 6 -13 2 -24 13 -26 26
-4 18 -5 17 -6 -5z"/>
<path d="M1852 320 c3 -8 15 -17 29 -21 l24 -6 -25 -5 -25 -5 25 1 c30 1 33
19 5 25 -11 2 -24 8 -28 15 -6 7 -7 6 -5 -4z"/>
<path d="M483 303 c9 -2 23 -2 30 0 6 3 -1 5 -18 5 -16 0 -22 -2 -12 -5z"/>
<path d="M623 303 c9 -2 23 -2 30 0 6 3 -1 5 -18 5 -16 0 -22 -2 -12 -5z"/>
<path d="M803 303 c9 -2 23 -2 30 0 6 3 -1 5 -18 5 -16 0 -22 -2 -12 -5z"/>
<path d="M878 303 c7 -3 16 -2 19 1 4 3 -2 6 -13 5 -11 0 -14 -3 -6 -6z"/>
<path d="M1718 303 c7 -3 16 -2 19 1 4 3 -2 6 -13 5 -11 0 -14 -3 -6 -6z"/>
<path d="M1800 301 l25 -8 -25 -5 c-25 -5 -25 -5 3 -7 18 -1 27 4 27 14 0 10
-9 15 -27 14 l-28 -1 25 -7z"/>
<path d="M113 283 c9 -2 23 -2 30 0 6 3 -1 5 -18 5 -16 0 -22 -2 -12 -5z"/>
<path d="M483 283 c9 -2 23 -2 30 0 6 3 -1 5 -18 5 -16 0 -22 -2 -12 -5z"/>
<path d="M623 283 c9 -2 23 -2 30 0 6 3 -1 5 -18 5 -16 0 -22 -2 -12 -5z"/>
<path d="M878 283 c6 -2 18 -2 25 0 6 3 1 5 -13 5 -14 0 -19 -2 -12 -5z"/>
<path d="M1573 283 c9 -2 23 -2 30 0 6 3 -1 5 -18 5 -16 0 -22 -2 -12 -5z"/>
<path d="M1718 283 c6 -2 18 -2 25 0 6 3 1 5 -13 5 -14 0 -19 -2 -12 -5z"/>
</g>
</svg>
