<?xml version="1.0" standalone="no"?>
<!DOCTYPE svg PUBLIC "-//W3C//DTD SVG 20010904//EN"
 "http://www.w3.org/TR/2001/REC-SVG-20010904/DTD/svg10.dtd">
<svg version="1.0" xmlns="http://www.w3.org/2000/svg"
 width="447.000000pt" height="480.000000pt" viewBox="0 0 447.000000 480.000000"
 preserveAspectRatio="xMidYMid meet">

<g transform="translate(0.000000,480.000000) scale(0.100000,-0.100000)"
fill="#000000" stroke="none">
<path d="M2054 4571 c-139 -38 -254 -111 -377 -240 -199 -208 -345 -515 -457
-957 -10 -41 -10 -41 -68 -48 -106 -12 -298 -55 -411 -92 l-112 -36 -28 -57
c-69 -138 -120 -313 -153 -526 -19 -122 -22 -180 -22 -450 0 -228 4 -351 17
-465 25 -225 66 -469 86 -516 69 -157 256 -230 520 -203 57 5 108 11 114 12 6
1 22 -81 38 -191 29 -201 76 -470 85 -484 3 -4 40 -19 83 -32 254 -80 577 -81
829 -1 l80 25 6 73 c2 39 10 170 16 290 6 121 13 232 17 248 l6 29 112 0 113
0 6 -43 c3 -23 20 -172 37 -332 17 -159 33 -292 36 -295 9 -10 338 -21 468
-15 219 10 295 31 321 89 22 49 89 442 143 841 58 422 99 867 121 1298 l10
198 44 57 c140 183 169 398 90 677 -47 166 -121 268 -260 358 -66 43 -72 49
-98 115 -60 155 -214 344 -368 452 -220 156 -459 227 -788 235 -162 5 -194 3
-256 -14z m1234 -850 c141 -42 256 -115 311 -197 33 -51 74 -168 86 -245 l7
-46 -61 -37 c-78 -48 -193 -90 -323 -118 -91 -20 -132 -22 -353 -23 -279 0
-371 11 -448 53 -91 49 -170 157 -222 302 -29 81 -67 239 -60 251 7 10 149 46
235 59 151 23 250 28 500 26 229 -2 262 -5 328 -25z"/>
</g>
</svg>
